<svg width="512" height="512" viewBox="0 0 512 512" fill="none" xmlns="http://www.w3.org/2000/svg">
<path d="M30.5964 355.426L7.92969 351.233L55.5595 132.055L74.0508 125.75L172.174 196.678L170.533 214.432L75.721 261.985L64.656 243.25L144.049 203.459L74.5578 153.229L30.5964 355.426Z" fill="#C9171E"/>
<path d="M268.688 385.242L197.944 334.656L203.432 315.682L264.214 307.831V275.623L193.262 300.634L182.197 367.547L163.914 374.536L97.0774 329.303L99.7915 310.745L172.414 285.14L176.769 258.761L91.6792 296.203L81.7178 276.962L186.492 230.836L202.895 242.078L197.228 276.397L271.611 250.196L287.299 260.159V304.857L332.065 299.058L335.286 320.173L287.299 326.388V376.856L268.658 385.272L268.688 385.242ZM233.764 333.288L264.214 355.057V329.362L233.764 333.288ZM127.856 323.652L162.185 346.908L168.388 309.377L127.827 323.682L127.856 323.652Z" fill="#C9171E"/>
<path d="M346.082 223.057L346.052 223.027L329.977 199.89L310.024 222.492L298.363 214.641L312.172 195.161L288.67 186.745L291.98 173.898L315.87 176.009V153.735H330.335V178.418L353.002 167.058L359.891 178.775L339.58 188.946L358.251 215.86L346.082 223.057Z" fill="#C9171E"/>
<path d="M398.796 339.365C394.496 339.365 391 342.851 391 347.139C391 351.426 394.496 354.913 398.796 354.913C403.096 354.913 406.592 351.426 406.592 347.139C406.592 342.851 403.096 339.365 398.796 339.365ZM398.796 351.002C396.622 351.002 394.921 349.259 394.921 347.139C394.921 345.019 396.67 343.276 398.796 343.276C400.922 343.276 402.67 345.019 402.67 347.139C402.67 349.259 400.922 351.002 398.796 351.002Z" fill="#C9171E"/>
<path d="M411.318 363.676V370.46H504.07V363.676H411.318Z" fill="#C9171E"/>
<path d="M382.134 347.776L373.704 352.629L393.171 386.25L401.601 381.397L382.134 347.776Z" fill="#C9171E"/>
<path d="M367.498 360.421L358.351 357.101L349.026 382.647L358.173 385.966L367.498 360.421Z" fill="#C9171E"/>
</svg>
